<svg width="762" height="1011" xmlns="http://www.w3.org/2000/svg" xmlns:xlink="http://www.w3.org/1999/xlink" overflow="hidden"><defs><clipPath id="clip0"><rect x="12" y="22" width="762" height="1011"/></clipPath></defs><g clip-path="url(#clip0)" transform="translate(-12 -22)"><path d="M63.1916 32.8907C60.0838 37.2934 56.976 42.214 54.1272 47.6527 46.8757 61.6377 38.3293 72.2559 29.265 79.5074 20.4596 86.7589 10.6183 90.6437 0.776946 90.6437L0 90.6437 0 997.857 235.156 997.857C256.91 997.857 274.521 980.246 274.521 958.492L274.521 110.844C274.521 67.8532 309.483 32.8907 352.474 32.8907L761.407 32.8907 761.407 0 114.988 0C96.0823 0 77.9535 11.6542 63.1916 32.8907Z" fill="#EAE8E8" transform="matrix(1 0 0 1.01317 12.2967 22)"/></g></svg>